<?xml version="1.0" encoding="UTF-8" standalone="no"?>
<svg
   version="1.1"
   x="0px"
   y="0px"
   viewBox="0 0 100 100"
   enable-background="new 0 0 100 100"
   xml:space="preserve"
   id="svg1"
   sodipodi:docname="audio-background-off.svg"
   inkscape:version="1.3.2 (091e20e, 2023-11-25)"
   xmlns:inkscape="http://www.inkscape.org/namespaces/inkscape"
   xmlns:sodipodi="http://sodipodi.sourceforge.net/DTD/sodipodi-0.dtd"
   xmlns="http://www.w3.org/2000/svg"
   xmlns:svg="http://www.w3.org/2000/svg"><defs
     id="defs1" /><sodipodi:namedview
     id="namedview1"
     pagecolor="#ffffff"
     bordercolor="#000000"
     borderopacity="0.25"
     inkscape:showpageshadow="2"
     inkscape:pageopacity="0.0"
     inkscape:pagecheckerboard="0"
     inkscape:deskcolor="#d1d1d1"
     inkscape:zoom="5.7699913"
     inkscape:cx="72.357128"
     inkscape:cy="66.724537"
     inkscape:window-width="1850"
     inkscape:window-height="1016"
     inkscape:window-x="70"
     inkscape:window-y="27"
     inkscape:window-maximized="1"
     inkscape:current-layer="svg1" /><path
     d="m 45.72434,26.074472 c -4.96224,-6.13584 -16.2252,-5.77296 -22.52016,2.44728 -1.13544,1.48248 -2.02392,3.40488 -2.69496,5.58792 l -4.20192,1.75392 3.2904,2.04552 c -1.51344,8.30592 -0.6336,18.55296 1.48608,23.54256 6.49296,15.28344 27.4932,19.63152 39.68136,14.82336 17.68608,-6.97824 26.92656,-21.10248 26.92656,-21.10248 0,0 -20.64528,-0.2196 -41.96736,-29.09808 z m -14.53104,6.98976 c -0.24192,1.18728 -1.57824,1.93104 -2.98512,1.6596 -1.40688,-0.27072 -2.35152,-1.45368 -2.1096,-2.64096 0.2412,-1.18728 1.57824,-1.93104 2.98512,-1.66032 1.40688,0.27144 2.3508,1.45368 2.1096,2.64168 z m 41.62896,27.7992 c -1.73232,4.57848 -9.74952,5.7888 -17.90424,2.70288 -8.15544,-3.08592 -13.36248,-9.29952 -11.63016,-13.87944 1.73232,-4.5792 9.7488,-5.78952 17.90496,-2.70288 8.15472,3.08592 13.36176,9.30024 11.62944,13.87944 z"
     id="path1"
     style="stroke-width:0.72" /><circle
     style="fill:#000000;fill-opacity:0;stroke:#000000;stroke-width:7.05727;stroke-dasharray:none;stroke-opacity:1"
     id="outercircle"
     cx="50"
     cy="50"
     r="46.471367"
     inkscape:label="#outercircle" /><path
     style="fill:#ff0000;fill-opacity:0;stroke:#000000;stroke-width:7;stroke-dasharray:none;stroke-opacity:1"
     d="M 17.603059,85.881386 82.826986,20.657459"
     id="path17" /></svg>
